{
	"asset":{
		"generator":"Khronos glTF Blender I/O v4.2.0",
		"version":"2.0"
	},
	"extensionsUsed":[
		"KHR_materials_specular",
		"KHR_materials_ior"
	],
	"scene":0,
	"scenes":[
		{
			"name":"Scene",
			"nodes":[
				0
			]
		}
	],
	"nodes":[
		{
			"mesh":0,
			"name":"oldOxfordShoe"
		}
	],
	"materials":[
		{
			"alphaMode":"BLEND",
			"doubleSided":true,
			"extensions":{
				"KHR_materials_specular":{
					"specularColorFactor":[
						0.20000000298023224,
						0.20000000298023224,
						0.20000000298023224
					],
					"specularColorTexture":{
						"index":0
					}
				},
				"KHR_materials_ior":{
					"ior":1000
				}
			},
			"name":"sh_oldOxfordShoe",
			"normalTexture":{
				"index":1
			},
			"occlusionTexture":{
				"index":2
			},
			"pbrMetallicRoughness":{
				"baseColorTexture":{
					"index":3
				},
				"metallicFactor":0,
				"metallicRoughnessTexture":{
					"index":2
				}
			}
		}
	],
	"meshes":[
		{
			"name":"Cube.001",
			"primitives":[
				{
					"attributes":{
						"POSITION":0,
						"NORMAL":1,
						"TEXCOORD_0":2,
						"TEXCOORD_1":3,
						"TEXCOORD_2":4
					},
					"indices":5,
					"material":0
				}
			]
		}
	],
	"textures":[
		{
			"sampler":0,
			"source":0
		},
		{
			"sampler":0,
			"source":1
		},
		{
			"sampler":0,
			"source":2
		},
		{
			"sampler":0,
			"source":3
		}
	],
	"images":[
		{
			"mimeType":"image/png",
			"name":"sh_oldOxfordShoe_specularGlossiness",
			"uri":"sh_oldOxfordShoe_specularGlossiness.png"
		},
		{
			"mimeType":"image/jpeg",
			"name":"sh_oldOxfordShoe_normal",
			"uri":"sh_oldOxfordShoe_normal.jpg"
		},
		{
			"mimeType":"image/png",
			"name":"sh_oldOxfordShoe_occlusion-sh_oldOxfordShoe_specularGlossiness.png",
			"uri":"sh_oldOxfordShoe_occlusion-sh_oldOxfordShoe_specularGlossiness_png.png"
		},
		{
			"mimeType":"image/jpeg",
			"name":"sh_oldOxfordShoe_diffuse",
			"uri":"sh_oldOxfordShoe_diffuse.jpg"
		}
	],
	"accessors":[
		{
			"bufferView":0,
			"componentType":5126,
			"count":11206,
			"max":[
				0.5260260701179504,
				0.5212566256523132,
				0.8641629219055176
			],
			"min":[
				-0.5575082302093506,
				-0.45112645626068115,
				-0.7232959866523743
			],
			"type":"VEC3"
		},
		{
			"bufferView":1,
			"componentType":5126,
			"count":11206,
			"type":"VEC3"
		},
		{
			"bufferView":2,
			"componentType":5126,
			"count":11206,
			"type":"VEC2"
		},
		{
			"bufferView":3,
			"componentType":5126,
			"count":11206,
			"type":"VEC2"
		},
		{
			"bufferView":4,
			"componentType":5126,
			"count":11206,
			"type":"VEC2"
		},
		{
			"bufferView":5,
			"componentType":5123,
			"count":59946,
			"type":"SCALAR"
		}
	],
	"bufferViews":[
		{
			"buffer":0,
			"byteLength":134472,
			"byteOffset":0,
			"target":34962
		},
		{
			"buffer":0,
			"byteLength":134472,
			"byteOffset":134472,
			"target":34962
		},
		{
			"buffer":0,
			"byteLength":89648,
			"byteOffset":268944,
			"target":34962
		},
		{
			"buffer":0,
			"byteLength":89648,
			"byteOffset":358592,
			"target":34962
		},
		{
			"buffer":0,
			"byteLength":89648,
			"byteOffset":448240,
			"target":34962
		},
		{
			"buffer":0,
			"byteLength":119892,
			"byteOffset":537888,
			"target":34963
		}
	],
	"samplers":[
		{
			"magFilter":9729,
			"minFilter":9987
		}
	],
	"buffers":[
		{
			"byteLength":657780,
			"uri":"old_oxford_shoe.bin"
		}
	]
}
