{
	"asset":{
		"generator":"Khronos glTF Blender I/O v4.2.69",
		"version":"2.0"
	},
	"scene":0,
	"scenes":[
		{
			"name":"Scene",
			"nodes":[
				0
			]
		}
	],
	"nodes":[
		{
			"mesh":0,
			"name":"\ufffd\ufffd\ufffd\ufffd\ufffd\ufffd\ufffd\ufffd\ufffd_Material #148_0",
			"rotation":[
				-0.70710688829422,
				0,
				0,
				0.7071066498756409
			],
			"scale":[
				0.005000002216547728,
				0.005000004079192877,
				0.005000004079192877
			]
		}
	],
	"materials":[
		{
			"alphaMode":"BLEND",
			"doubleSided":true,
			"name":"Material_148",
			"pbrMetallicRoughness":{
				"baseColorFactor":[
					0.9700679779052734,
					0.06346239894628525,
					0.06346239894628525,
					0.673194169998169
				],
				"metallicFactor":0.801548957824707,
				"roughnessFactor":0
			}
		}
	],
	"meshes":[
		{
			"name":"\ufffd\ufffd\ufffd\ufffd\ufffd\ufffd\ufffd\ufffd\ufffd_Material #148_0",
			"primitives":[
				{
					"attributes":{
						"POSITION":0,
						"NORMAL":1,
						"TEXCOORD_0":2
					},
					"indices":3,
					"material":0
				}
			]
		}
	],
	"accessors":[
		{
			"bufferView":0,
			"componentType":5126,
			"count":6742,
			"max":[
				101.71253204345703,
				102.9004135131836,
				11.872520446777344
			],
			"min":[
				-125.14314270019531,
				-107.5564193725586,
				-71.94910430908203
			],
			"type":"VEC3"
		},
		{
			"bufferView":1,
			"componentType":5126,
			"count":6742,
			"type":"VEC3"
		},
		{
			"bufferView":2,
			"componentType":5126,
			"count":6742,
			"type":"VEC2"
		},
		{
			"bufferView":3,
			"componentType":5123,
			"count":36840,
			"type":"SCALAR"
		}
	],
	"bufferViews":[
		{
			"buffer":0,
			"byteLength":80904,
			"byteOffset":0,
			"target":34962
		},
		{
			"buffer":0,
			"byteLength":80904,
			"byteOffset":80904,
			"target":34962
		},
		{
			"buffer":0,
			"byteLength":53936,
			"byteOffset":161808,
			"target":34962
		},
		{
			"buffer":0,
			"byteLength":73680,
			"byteOffset":215744,
			"target":34963
		}
	],
	"buffers":[
		{
			"byteLength":289424,
			"uri":"nike_slippers.bin"
		}
	]
}
