{
	"asset":{
		"generator":"Khronos glTF Blender I/O v4.2.0",
		"version":"2.0"
	},
	"scene":0,
	"scenes":[
		{
			"name":"Scene",
			"nodes":[
				0
			]
		}
	],
	"nodes":[
		{
			"mesh":0,
			"name":"black_red_heels",
			"translation":[
				0,
				0.10000000149011612,
				0.7539312243461609
			]
		}
	],
	"materials":[
		{
			"alphaMode":"BLEND",
			"doubleSided":true,
			"name":"black",
			"pbrMetallicRoughness":{
				"baseColorFactor":[
					0.017641853541135788,
					0.012983045540750027,
					0.0043914467096328735,
					1
				],
				"metallicFactor":0.6220470070838928,
				"roughnessFactor":0.171875
			}
		},
		{
			"alphaMode":"BLEND",
			"doubleSided":true,
			"name":"outsole",
			"pbrMetallicRoughness":{
				"baseColorFactor":[
					0.7990989089012146,
					0.009133970364928246,
					0.008023211732506752,
					1
				],
				"metallicFactor":0.028297200798988342,
				"roughnessFactor":0.2421880066394806
			}
		},
		{
			"alphaMode":"BLEND",
			"doubleSided":true,
			"name":"top_piece",
			"pbrMetallicRoughness":{
				"baseColorFactor":[
					0.008568069897592068,
					0.008568133227527142,
					0.008568129502236843,
					1
				],
				"metallicFactor":0.12985999882221222,
				"roughnessFactor":0.6875
			}
		},
		{
			"alphaMode":"BLEND",
			"doubleSided":true,
			"name":"insole",
			"pbrMetallicRoughness":{
				"baseColorFactor":[
					0.010960021056234837,
					0.010960102081298828,
					0.010960097424685955,
					1
				],
				"metallicFactor":0.6220470070838928,
				"roughnessFactor":0.5234379768371582
			}
		}
	],
	"meshes":[
		{
			"name":"Cube.004",
			"primitives":[
				{
					"attributes":{
						"POSITION":0,
						"NORMAL":1,
						"TEXCOORD_0":2,
						"TEXCOORD_1":3,
						"TEXCOORD_2":4
					},
					"indices":5,
					"material":0
				},
				{
					"attributes":{
						"POSITION":6,
						"NORMAL":7,
						"TEXCOORD_0":8,
						"TEXCOORD_1":9,
						"TEXCOORD_2":10
					},
					"indices":11,
					"material":1
				},
				{
					"attributes":{
						"POSITION":12,
						"NORMAL":13,
						"TEXCOORD_0":14,
						"TEXCOORD_1":15,
						"TEXCOORD_2":16
					},
					"indices":17,
					"material":2
				},
				{
					"attributes":{
						"POSITION":18,
						"NORMAL":19,
						"TEXCOORD_0":20,
						"TEXCOORD_1":21,
						"TEXCOORD_2":22
					},
					"indices":23,
					"material":3
				}
			]
		}
	],
	"accessors":[
		{
			"bufferView":0,
			"componentType":5126,
			"count":139665,
			"max":[
				0.49675673246383667,
				0.6248397827148438,
				-0.16482441127300262
			],
			"min":[
				-0.6429433226585388,
				-0.6731553077697754,
				-1.3089581727981567
			],
			"type":"VEC3"
		},
		{
			"bufferView":1,
			"componentType":5126,
			"count":139665,
			"type":"VEC3"
		},
		{
			"bufferView":2,
			"componentType":5126,
			"count":139665,
			"type":"VEC2"
		},
		{
			"bufferView":3,
			"componentType":5126,
			"count":139665,
			"type":"VEC2"
		},
		{
			"bufferView":4,
			"componentType":5126,
			"count":139665,
			"type":"VEC2"
		},
		{
			"bufferView":5,
			"componentType":5125,
			"count":834288,
			"type":"SCALAR"
		},
		{
			"bufferView":6,
			"componentType":5126,
			"count":1224,
			"max":[
				0.47075045108795166,
				0.011456378735601902,
				-0.1904270499944687
			],
			"min":[
				-0.5378100275993347,
				-0.6799563765525818,
				-1.2418832778930664
			],
			"type":"VEC3"
		},
		{
			"bufferView":7,
			"componentType":5126,
			"count":1224,
			"type":"VEC3"
		},
		{
			"bufferView":8,
			"componentType":5126,
			"count":1224,
			"type":"VEC2"
		},
		{
			"bufferView":9,
			"componentType":5126,
			"count":1224,
			"type":"VEC2"
		},
		{
			"bufferView":10,
			"componentType":5126,
			"count":1224,
			"type":"VEC2"
		},
		{
			"bufferView":11,
			"componentType":5123,
			"count":7356,
			"type":"SCALAR"
		},
		{
			"bufferView":12,
			"componentType":5126,
			"count":408,
			"max":[
				-0.4497889578342438,
				-0.5432958602905273,
				-1.119073510169983
			],
			"min":[
				-0.5366884469985962,
				-0.609230101108551,
				-1.2033449411392212
			],
			"type":"VEC3"
		},
		{
			"bufferView":13,
			"componentType":5126,
			"count":408,
			"type":"VEC3"
		},
		{
			"bufferView":14,
			"componentType":5126,
			"count":408,
			"type":"VEC2"
		},
		{
			"bufferView":15,
			"componentType":5126,
			"count":408,
			"type":"VEC2"
		},
		{
			"bufferView":16,
			"componentType":5126,
			"count":408,
			"type":"VEC2"
		},
		{
			"bufferView":17,
			"componentType":5123,
			"count":2424,
			"type":"SCALAR"
		},
		{
			"bufferView":18,
			"componentType":5126,
			"count":5796,
			"max":[
				0.2854112982749939,
				0.3295934200286865,
				-0.41376030445098877
			],
			"min":[
				-0.5925347805023193,
				-0.5948963761329651,
				-1.2605944871902466
			],
			"type":"VEC3"
		},
		{
			"bufferView":19,
			"componentType":5126,
			"count":5796,
			"type":"VEC3"
		},
		{
			"bufferView":20,
			"componentType":5126,
			"count":5796,
			"type":"VEC2"
		},
		{
			"bufferView":21,
			"componentType":5126,
			"count":5796,
			"type":"VEC2"
		},
		{
			"bufferView":22,
			"componentType":5126,
			"count":5796,
			"type":"VEC2"
		},
		{
			"bufferView":23,
			"componentType":5123,
			"count":34752,
			"type":"SCALAR"
		}
	],
	"bufferViews":[
		{
			"buffer":0,
			"byteLength":1675980,
			"byteOffset":0,
			"target":34962
		},
		{
			"buffer":0,
			"byteLength":1675980,
			"byteOffset":1675980,
			"target":34962
		},
		{
			"buffer":0,
			"byteLength":1117320,
			"byteOffset":3351960,
			"target":34962
		},
		{
			"buffer":0,
			"byteLength":1117320,
			"byteOffset":4469280,
			"target":34962
		},
		{
			"buffer":0,
			"byteLength":1117320,
			"byteOffset":5586600,
			"target":34962
		},
		{
			"buffer":0,
			"byteLength":3337152,
			"byteOffset":6703920,
			"target":34963
		},
		{
			"buffer":0,
			"byteLength":14688,
			"byteOffset":10041072,
			"target":34962
		},
		{
			"buffer":0,
			"byteLength":14688,
			"byteOffset":10055760,
			"target":34962
		},
		{
			"buffer":0,
			"byteLength":9792,
			"byteOffset":10070448,
			"target":34962
		},
		{
			"buffer":0,
			"byteLength":9792,
			"byteOffset":10080240,
			"target":34962
		},
		{
			"buffer":0,
			"byteLength":9792,
			"byteOffset":10090032,
			"target":34962
		},
		{
			"buffer":0,
			"byteLength":14712,
			"byteOffset":10099824,
			"target":34963
		},
		{
			"buffer":0,
			"byteLength":4896,
			"byteOffset":10114536,
			"target":34962
		},
		{
			"buffer":0,
			"byteLength":4896,
			"byteOffset":10119432,
			"target":34962
		},
		{
			"buffer":0,
			"byteLength":3264,
			"byteOffset":10124328,
			"target":34962
		},
		{
			"buffer":0,
			"byteLength":3264,
			"byteOffset":10127592,
			"target":34962
		},
		{
			"buffer":0,
			"byteLength":3264,
			"byteOffset":10130856,
			"target":34962
		},
		{
			"buffer":0,
			"byteLength":4848,
			"byteOffset":10134120,
			"target":34963
		},
		{
			"buffer":0,
			"byteLength":69552,
			"byteOffset":10138968,
			"target":34962
		},
		{
			"buffer":0,
			"byteLength":69552,
			"byteOffset":10208520,
			"target":34962
		},
		{
			"buffer":0,
			"byteLength":46368,
			"byteOffset":10278072,
			"target":34962
		},
		{
			"buffer":0,
			"byteLength":46368,
			"byteOffset":10324440,
			"target":34962
		},
		{
			"buffer":0,
			"byteLength":46368,
			"byteOffset":10370808,
			"target":34962
		},
		{
			"buffer":0,
			"byteLength":69504,
			"byteOffset":10417176,
			"target":34963
		}
	],
	"buffers":[
		{
			"byteLength":10486680,
			"uri":"black_red_heels.bin"
		}
	]
}
