{
	"asset":{
		"generator":"Khronos glTF Blender I/O v4.2.0",
		"version":"2.0"
	},
	"scene":0,
	"scenes":[
		{
			"name":"Scene",
			"nodes":[
				0
			]
		}
	],
	"nodes":[
		{
			"mesh":0,
			"name":"modern_derby_shoe",
			"translation":[
				0,
				0.10000000149011612,
				0.7539312243461609
			]
		}
	],
	"materials":[
		{
			"alphaMode":"BLEND",
			"doubleSided":true,
			"name":"Material8-material",
			"pbrMetallicRoughness":{
				"baseColorFactor":[
					0.1096000000834465,
					0.1096000000834465,
					0.1096000000834465,
					1
				],
				"roughnessFactor":0.4000000059604645
			}
		},
		{
			"alphaMode":"BLEND",
			"doubleSided":true,
			"name":"Material1-material",
			"pbrMetallicRoughness":{
				"baseColorTexture":{
					"index":0
				},
				"metallicFactor":0,
				"roughnessFactor":0.6000000238418579
			}
		},
		{
			"alphaMode":"BLEND",
			"doubleSided":true,
			"name":"Material3-material",
			"pbrMetallicRoughness":{
				"baseColorTexture":{
					"index":1
				},
				"metallicFactor":0,
				"roughnessFactor":0.4000000059604645
			}
		},
		{
			"alphaMode":"BLEND",
			"doubleSided":true,
			"name":"Material4-material",
			"pbrMetallicRoughness":{
				"baseColorTexture":{
					"index":2
				},
				"metallicFactor":0,
				"roughnessFactor":0.4000000059604645
			}
		},
		{
			"alphaMode":"BLEND",
			"doubleSided":true,
			"name":"Material5-material",
			"pbrMetallicRoughness":{
				"baseColorTexture":{
					"index":3
				},
				"metallicFactor":0,
				"roughnessFactor":0.4000000059604645
			}
		},
		{
			"alphaMode":"BLEND",
			"doubleSided":true,
			"name":"Material6-material",
			"pbrMetallicRoughness":{
				"baseColorFactor":[
					0.01731552742421627,
					0.01731552742421627,
					0.01731552742421627,
					1
				],
				"baseColorTexture":{
					"index":4
				},
				"metallicFactor":0.38881227374076843,
				"roughnessFactor":0.16413229703903198
			}
		}
	],
	"meshes":[
		{
			"name":"Cube.007",
			"primitives":[
				{
					"attributes":{
						"POSITION":0,
						"NORMAL":1,
						"TEXCOORD_0":2,
						"TEXCOORD_1":3,
						"TEXCOORD_2":4
					},
					"indices":5,
					"material":0
				},
				{
					"attributes":{
						"POSITION":6,
						"NORMAL":7,
						"TEXCOORD_0":8,
						"TEXCOORD_1":9,
						"TEXCOORD_2":10
					},
					"indices":11,
					"material":1
				},
				{
					"attributes":{
						"POSITION":12,
						"NORMAL":13,
						"TEXCOORD_0":14,
						"TEXCOORD_1":15,
						"TEXCOORD_2":16
					},
					"indices":17,
					"material":2
				},
				{
					"attributes":{
						"POSITION":18,
						"NORMAL":19,
						"TEXCOORD_0":20,
						"TEXCOORD_1":21,
						"TEXCOORD_2":22
					},
					"indices":23,
					"material":3
				},
				{
					"attributes":{
						"POSITION":24,
						"NORMAL":25,
						"TEXCOORD_0":26,
						"TEXCOORD_1":27,
						"TEXCOORD_2":28
					},
					"indices":29,
					"material":4
				},
				{
					"attributes":{
						"POSITION":30,
						"NORMAL":31,
						"TEXCOORD_0":32,
						"TEXCOORD_1":33,
						"TEXCOORD_2":34
					},
					"indices":35,
					"material":5
				}
			]
		}
	],
	"textures":[
		{
			"sampler":0,
			"source":0
		},
		{
			"sampler":0,
			"source":1
		},
		{
			"sampler":0,
			"source":0
		},
		{
			"sampler":0,
			"source":2
		},
		{
			"sampler":0,
			"source":3
		}
	],
	"images":[
		{
			"mimeType":"image/png",
			"name":"Material4-material_baseColor",
			"uri":"Material4-material_baseColor.png"
		},
		{
			"mimeType":"image/png",
			"name":"Material3-material_baseColor",
			"uri":"Material3-material_baseColor.png"
		},
		{
			"mimeType":"image/png",
			"name":"Material5-material_baseColor",
			"uri":"Material5-material_baseColor.png"
		},
		{
			"mimeType":"image/png",
			"name":"Material6-material_baseColor",
			"uri":"Material6-material_baseColor.png"
		}
	],
	"accessors":[
		{
			"bufferView":0,
			"componentType":5126,
			"count":466,
			"max":[
				0.5991527438163757,
				0.03578399121761322,
				-0.1980694830417633
			],
			"min":[
				-0.8065555095672607,
				-0.6845965385437012,
				-1.440924048423767
			],
			"type":"VEC3"
		},
		{
			"bufferView":1,
			"componentType":5126,
			"count":466,
			"type":"VEC3"
		},
		{
			"bufferView":2,
			"componentType":5126,
			"count":466,
			"type":"VEC2"
		},
		{
			"bufferView":3,
			"componentType":5126,
			"count":466,
			"type":"VEC2"
		},
		{
			"bufferView":4,
			"componentType":5126,
			"count":466,
			"type":"VEC2"
		},
		{
			"bufferView":5,
			"componentType":5123,
			"count":1251,
			"type":"SCALAR"
		},
		{
			"bufferView":6,
			"componentType":5126,
			"count":261,
			"max":[
				0.32132959365844727,
				0.3638044595718384,
				-0.3717934489250183
			],
			"min":[
				-0.7346962690353394,
				-0.5400736927986145,
				-1.3901442289352417
			],
			"type":"VEC3"
		},
		{
			"bufferView":7,
			"componentType":5126,
			"count":261,
			"type":"VEC3"
		},
		{
			"bufferView":8,
			"componentType":5126,
			"count":261,
			"type":"VEC2"
		},
		{
			"bufferView":9,
			"componentType":5126,
			"count":261,
			"type":"VEC2"
		},
		{
			"bufferView":10,
			"componentType":5126,
			"count":261,
			"type":"VEC2"
		},
		{
			"bufferView":11,
			"componentType":5123,
			"count":1002,
			"type":"SCALAR"
		},
		{
			"bufferView":12,
			"componentType":5126,
			"count":777,
			"max":[
				0.1750979721546173,
				0.14916789531707764,
				-0.5767057538032532
			],
			"min":[
				-0.19726940989494324,
				-0.18610945343971252,
				-0.9146389961242676
			],
			"type":"VEC3"
		},
		{
			"bufferView":13,
			"componentType":5126,
			"count":777,
			"type":"VEC3"
		},
		{
			"bufferView":14,
			"componentType":5126,
			"count":777,
			"type":"VEC2"
		},
		{
			"bufferView":15,
			"componentType":5126,
			"count":777,
			"type":"VEC2"
		},
		{
			"bufferView":16,
			"componentType":5126,
			"count":777,
			"type":"VEC2"
		},
		{
			"bufferView":17,
			"componentType":5123,
			"count":3459,
			"type":"SCALAR"
		},
		{
			"bufferView":18,
			"componentType":5126,
			"count":173,
			"max":[
				0.5854386687278748,
				-0.3583173453807831,
				-0.20447662472724915
			],
			"min":[
				0.04911743476986885,
				-0.6368089914321899,
				-0.7230442762374878
			],
			"type":"VEC3"
		},
		{
			"bufferView":19,
			"componentType":5126,
			"count":173,
			"type":"VEC3"
		},
		{
			"bufferView":20,
			"componentType":5126,
			"count":173,
			"type":"VEC2"
		},
		{
			"bufferView":21,
			"componentType":5126,
			"count":173,
			"type":"VEC2"
		},
		{
			"bufferView":22,
			"componentType":5126,
			"count":173,
			"type":"VEC2"
		},
		{
			"bufferView":23,
			"componentType":5123,
			"count":822,
			"type":"SCALAR"
		},
		{
			"bufferView":24,
			"componentType":5126,
			"count":278,
			"max":[
				0.43004652857780457,
				-0.11524736136198044,
				-0.2943027913570404
			],
			"min":[
				-0.47211599349975586,
				-0.5639011859893799,
				-1.141499638557434
			],
			"type":"VEC3"
		},
		{
			"bufferView":25,
			"componentType":5126,
			"count":278,
			"type":"VEC3"
		},
		{
			"bufferView":26,
			"componentType":5126,
			"count":278,
			"type":"VEC2"
		},
		{
			"bufferView":27,
			"componentType":5126,
			"count":278,
			"type":"VEC2"
		},
		{
			"bufferView":28,
			"componentType":5126,
			"count":278,
			"type":"VEC2"
		},
		{
			"bufferView":29,
			"componentType":5123,
			"count":1092,
			"type":"SCALAR"
		},
		{
			"bufferView":30,
			"componentType":5126,
			"count":692,
			"max":[
				0.25372615456581116,
				0.3831249475479126,
				-0.47627875208854675
			],
			"min":[
				-0.7524641752243042,
				-0.24782243371009827,
				-1.3956174850463867
			],
			"type":"VEC3"
		},
		{
			"bufferView":31,
			"componentType":5126,
			"count":692,
			"type":"VEC3"
		},
		{
			"bufferView":32,
			"componentType":5126,
			"count":692,
			"type":"VEC2"
		},
		{
			"bufferView":33,
			"componentType":5126,
			"count":692,
			"type":"VEC2"
		},
		{
			"bufferView":34,
			"componentType":5126,
			"count":692,
			"type":"VEC2"
		},
		{
			"bufferView":35,
			"componentType":5123,
			"count":3465,
			"type":"SCALAR"
		}
	],
	"bufferViews":[
		{
			"buffer":0,
			"byteLength":5592,
			"byteOffset":0,
			"target":34962
		},
		{
			"buffer":0,
			"byteLength":5592,
			"byteOffset":5592,
			"target":34962
		},
		{
			"buffer":0,
			"byteLength":3728,
			"byteOffset":11184,
			"target":34962
		},
		{
			"buffer":0,
			"byteLength":3728,
			"byteOffset":14912,
			"target":34962
		},
		{
			"buffer":0,
			"byteLength":3728,
			"byteOffset":18640,
			"target":34962
		},
		{
			"buffer":0,
			"byteLength":2502,
			"byteOffset":22368,
			"target":34963
		},
		{
			"buffer":0,
			"byteLength":3132,
			"byteOffset":24872,
			"target":34962
		},
		{
			"buffer":0,
			"byteLength":3132,
			"byteOffset":28004,
			"target":34962
		},
		{
			"buffer":0,
			"byteLength":2088,
			"byteOffset":31136,
			"target":34962
		},
		{
			"buffer":0,
			"byteLength":2088,
			"byteOffset":33224,
			"target":34962
		},
		{
			"buffer":0,
			"byteLength":2088,
			"byteOffset":35312,
			"target":34962
		},
		{
			"buffer":0,
			"byteLength":2004,
			"byteOffset":37400,
			"target":34963
		},
		{
			"buffer":0,
			"byteLength":9324,
			"byteOffset":39404,
			"target":34962
		},
		{
			"buffer":0,
			"byteLength":9324,
			"byteOffset":48728,
			"target":34962
		},
		{
			"buffer":0,
			"byteLength":6216,
			"byteOffset":58052,
			"target":34962
		},
		{
			"buffer":0,
			"byteLength":6216,
			"byteOffset":64268,
			"target":34962
		},
		{
			"buffer":0,
			"byteLength":6216,
			"byteOffset":70484,
			"target":34962
		},
		{
			"buffer":0,
			"byteLength":6918,
			"byteOffset":76700,
			"target":34963
		},
		{
			"buffer":0,
			"byteLength":2076,
			"byteOffset":83620,
			"target":34962
		},
		{
			"buffer":0,
			"byteLength":2076,
			"byteOffset":85696,
			"target":34962
		},
		{
			"buffer":0,
			"byteLength":1384,
			"byteOffset":87772,
			"target":34962
		},
		{
			"buffer":0,
			"byteLength":1384,
			"byteOffset":89156,
			"target":34962
		},
		{
			"buffer":0,
			"byteLength":1384,
			"byteOffset":90540,
			"target":34962
		},
		{
			"buffer":0,
			"byteLength":1644,
			"byteOffset":91924,
			"target":34963
		},
		{
			"buffer":0,
			"byteLength":3336,
			"byteOffset":93568,
			"target":34962
		},
		{
			"buffer":0,
			"byteLength":3336,
			"byteOffset":96904,
			"target":34962
		},
		{
			"buffer":0,
			"byteLength":2224,
			"byteOffset":100240,
			"target":34962
		},
		{
			"buffer":0,
			"byteLength":2224,
			"byteOffset":102464,
			"target":34962
		},
		{
			"buffer":0,
			"byteLength":2224,
			"byteOffset":104688,
			"target":34962
		},
		{
			"buffer":0,
			"byteLength":2184,
			"byteOffset":106912,
			"target":34963
		},
		{
			"buffer":0,
			"byteLength":8304,
			"byteOffset":109096,
			"target":34962
		},
		{
			"buffer":0,
			"byteLength":8304,
			"byteOffset":117400,
			"target":34962
		},
		{
			"buffer":0,
			"byteLength":5536,
			"byteOffset":125704,
			"target":34962
		},
		{
			"buffer":0,
			"byteLength":5536,
			"byteOffset":131240,
			"target":34962
		},
		{
			"buffer":0,
			"byteLength":5536,
			"byteOffset":136776,
			"target":34962
		},
		{
			"buffer":0,
			"byteLength":6930,
			"byteOffset":142312,
			"target":34963
		}
	],
	"samplers":[
		{
			"magFilter":9729,
			"minFilter":9987
		}
	],
	"buffers":[
		{
			"byteLength":149244,
			"uri":"modern_derby_shoe.bin"
		}
	]
}
