{
	"asset":{
		"generator":"Khronos glTF Blender I/O v4.2.69",
		"version":"2.0"
	},
	"scene":0,
	"scenes":[
		{
			"name":"Scene",
			"nodes":[
				0
			]
		}
	],
	"nodes":[
		{
			"mesh":0,
			"name":"EspiritHeels"
		}
	],
	"materials":[
		{
			"doubleSided":true,
			"name":"Band",
			"pbrMetallicRoughness":{
				"baseColorFactor":[
					0.8549873232841492,
					0.8307705521583557,
					0.6938721537590027,
					1
				],
				"metallicFactor":0,
				"roughnessFactor":0.6000000238418579
			}
		},
		{
			"doubleSided":true,
			"name":"Punkte",
			"pbrMetallicRoughness":{
				"baseColorFactor":[
					0,
					0,
					0,
					1
				],
				"metallicFactor":0,
				"roughnessFactor":0.6000000238418579
			}
		},
		{
			"doubleSided":true,
			"name":"KunstfaserGewebe",
			"pbrMetallicRoughness":{
				"baseColorFactor":[
					0.6795380711555481,
					0.6375977396965027,
					0.5271154046058655,
					1
				],
				"metallicFactor":0,
				"roughnessFactor":0.6000000238418579
			}
		},
		{
			"doubleSided":true,
			"name":"Material_0",
			"pbrMetallicRoughness":{
				"baseColorFactor":[
					0,
					0,
					0,
					1
				],
				"metallicFactor":0,
				"roughnessFactor":0.6000000238418579
			}
		},
		{
			"doubleSided":true,
			"name":"SohleGummi",
			"pbrMetallicRoughness":{
				"baseColorFactor":[
					0.006048793438822031,
					0.006048837676644325,
					0.006048835348337889,
					1
				],
				"metallicFactor":0,
				"roughnessFactor":0.6000000238418579
			}
		},
		{
			"doubleSided":true,
			"name":"Chrome",
			"pbrMetallicRoughness":{
				"baseColorFactor":[
					0,
					0,
					0,
					1
				],
				"metallicFactor":0,
				"roughnessFactor":0.6000000238418579
			}
		},
		{
			"doubleSided":true,
			"name":"KunstfaserGewebe_Absatz",
			"pbrMetallicRoughness":{
				"baseColorFactor":[
					0.004646919202059507,
					0.004646919202059507,
					0.004646919202059507,
					1
				],
				"metallicFactor":0,
				"roughnessFactor":0.6000000238418579
			}
		}
	],
	"meshes":[
		{
			"name":"Cube.004",
			"primitives":[
				{
					"attributes":{
						"POSITION":0,
						"NORMAL":1,
						"TEXCOORD_0":2,
						"TEXCOORD_1":3,
						"TEXCOORD_2":4
					},
					"indices":5,
					"material":0
				},
				{
					"attributes":{
						"POSITION":6,
						"NORMAL":7,
						"TEXCOORD_0":8,
						"TEXCOORD_1":9,
						"TEXCOORD_2":10
					},
					"indices":11,
					"material":1
				},
				{
					"attributes":{
						"POSITION":12,
						"NORMAL":13,
						"TEXCOORD_0":14,
						"TEXCOORD_1":15,
						"TEXCOORD_2":16
					},
					"indices":17,
					"material":2
				},
				{
					"attributes":{
						"POSITION":18,
						"NORMAL":19,
						"TEXCOORD_0":20,
						"TEXCOORD_1":21,
						"TEXCOORD_2":22
					},
					"indices":23,
					"material":3
				},
				{
					"attributes":{
						"POSITION":24,
						"NORMAL":25,
						"TEXCOORD_0":26,
						"TEXCOORD_1":27,
						"TEXCOORD_2":28
					},
					"indices":29,
					"material":4
				},
				{
					"attributes":{
						"POSITION":30,
						"NORMAL":31,
						"TEXCOORD_0":32,
						"TEXCOORD_1":33,
						"TEXCOORD_2":34
					},
					"indices":35,
					"material":5
				},
				{
					"attributes":{
						"POSITION":36,
						"NORMAL":37,
						"TEXCOORD_0":38,
						"TEXCOORD_1":39,
						"TEXCOORD_2":40
					},
					"indices":41,
					"material":6
				}
			]
		}
	],
	"accessors":[
		{
			"bufferView":0,
			"componentType":5126,
			"count":11772,
			"max":[
				0.31465789675712585,
				0.5046841502189636,
				0.28139787912368774
			],
			"min":[
				-0.6319252252578735,
				-0.4048214852809906,
				-0.571229100227356
			],
			"type":"VEC3"
		},
		{
			"bufferView":1,
			"componentType":5126,
			"count":11772,
			"type":"VEC3"
		},
		{
			"bufferView":2,
			"componentType":5126,
			"count":11772,
			"type":"VEC2"
		},
		{
			"bufferView":3,
			"componentType":5126,
			"count":11772,
			"type":"VEC2"
		},
		{
			"bufferView":4,
			"componentType":5126,
			"count":11772,
			"type":"VEC2"
		},
		{
			"bufferView":5,
			"componentType":5123,
			"count":11772,
			"type":"SCALAR"
		},
		{
			"bufferView":6,
			"componentType":5126,
			"count":2292,
			"max":[
				0.43343111872673035,
				0.3806249499320984,
				0.4165576696395874
			],
			"min":[
				-0.6286849975585938,
				-0.49688810110092163,
				-0.5687112212181091
			],
			"type":"VEC3"
		},
		{
			"bufferView":7,
			"componentType":5126,
			"count":2292,
			"type":"VEC3"
		},
		{
			"bufferView":8,
			"componentType":5126,
			"count":2292,
			"type":"VEC2"
		},
		{
			"bufferView":9,
			"componentType":5126,
			"count":2292,
			"type":"VEC2"
		},
		{
			"bufferView":10,
			"componentType":5126,
			"count":2292,
			"type":"VEC2"
		},
		{
			"bufferView":11,
			"componentType":5123,
			"count":2292,
			"type":"SCALAR"
		},
		{
			"bufferView":12,
			"componentType":5126,
			"count":7296,
			"max":[
				0.42766860127449036,
				0.5034050941467285,
				0.4102824330329895
			],
			"min":[
				-0.6149795651435852,
				-0.5033823251724243,
				-0.5546388626098633
			],
			"type":"VEC3"
		},
		{
			"bufferView":13,
			"componentType":5126,
			"count":7296,
			"type":"VEC3"
		},
		{
			"bufferView":14,
			"componentType":5126,
			"count":7296,
			"type":"VEC2"
		},
		{
			"bufferView":15,
			"componentType":5126,
			"count":7296,
			"type":"VEC2"
		},
		{
			"bufferView":16,
			"componentType":5126,
			"count":7296,
			"type":"VEC2"
		},
		{
			"bufferView":17,
			"componentType":5123,
			"count":7296,
			"type":"SCALAR"
		},
		{
			"bufferView":18,
			"componentType":5126,
			"count":8688,
			"max":[
				0.43859267234802246,
				0.2315080463886261,
				0.42138671875
			],
			"min":[
				-0.6098934412002563,
				-0.5139569044113159,
				-0.5573636889457703
			],
			"type":"VEC3"
		},
		{
			"bufferView":19,
			"componentType":5126,
			"count":8688,
			"type":"VEC3"
		},
		{
			"bufferView":20,
			"componentType":5126,
			"count":8688,
			"type":"VEC2"
		},
		{
			"bufferView":21,
			"componentType":5126,
			"count":8688,
			"type":"VEC2"
		},
		{
			"bufferView":22,
			"componentType":5126,
			"count":8688,
			"type":"VEC2"
		},
		{
			"bufferView":23,
			"componentType":5123,
			"count":8688,
			"type":"SCALAR"
		},
		{
			"bufferView":24,
			"componentType":5126,
			"count":21864,
			"max":[
				0.4369810223579407,
				0.23636236786842346,
				0.421578973531723
			],
			"min":[
				-0.6185305118560791,
				-0.5220696330070496,
				-0.5637473464012146
			],
			"type":"VEC3"
		},
		{
			"bufferView":25,
			"componentType":5126,
			"count":21864,
			"type":"VEC3"
		},
		{
			"bufferView":26,
			"componentType":5126,
			"count":21864,
			"type":"VEC2"
		},
		{
			"bufferView":27,
			"componentType":5126,
			"count":21864,
			"type":"VEC2"
		},
		{
			"bufferView":28,
			"componentType":5126,
			"count":21864,
			"type":"VEC2"
		},
		{
			"bufferView":29,
			"componentType":5123,
			"count":21864,
			"type":"SCALAR"
		},
		{
			"bufferView":30,
			"componentType":5126,
			"count":21196,
			"max":[
				0.28610655665397644,
				0.23660364747047424,
				0.26351678371429443
			],
			"min":[
				-0.6057121753692627,
				-0.522254467010498,
				-0.5515307784080505
			],
			"type":"VEC3"
		},
		{
			"bufferView":31,
			"componentType":5126,
			"count":21196,
			"type":"VEC3"
		},
		{
			"bufferView":32,
			"componentType":5126,
			"count":21196,
			"type":"VEC2"
		},
		{
			"bufferView":33,
			"componentType":5126,
			"count":21196,
			"type":"VEC2"
		},
		{
			"bufferView":34,
			"componentType":5126,
			"count":21196,
			"type":"VEC2"
		},
		{
			"bufferView":35,
			"componentType":5123,
			"count":21300,
			"type":"SCALAR"
		},
		{
			"bufferView":36,
			"componentType":5126,
			"count":2712,
			"max":[
				-0.17538593709468842,
				0.2167682945728302,
				-0.15298284590244293
			],
			"min":[
				-0.6187326312065125,
				-0.06274108588695526,
				-0.5633472204208374
			],
			"type":"VEC3"
		},
		{
			"bufferView":37,
			"componentType":5126,
			"count":2712,
			"type":"VEC3"
		},
		{
			"bufferView":38,
			"componentType":5126,
			"count":2712,
			"type":"VEC2"
		},
		{
			"bufferView":39,
			"componentType":5126,
			"count":2712,
			"type":"VEC2"
		},
		{
			"bufferView":40,
			"componentType":5126,
			"count":2712,
			"type":"VEC2"
		},
		{
			"bufferView":41,
			"componentType":5123,
			"count":2712,
			"type":"SCALAR"
		}
	],
	"bufferViews":[
		{
			"buffer":0,
			"byteLength":141264,
			"byteOffset":0,
			"target":34962
		},
		{
			"buffer":0,
			"byteLength":141264,
			"byteOffset":141264,
			"target":34962
		},
		{
			"buffer":0,
			"byteLength":94176,
			"byteOffset":282528,
			"target":34962
		},
		{
			"buffer":0,
			"byteLength":94176,
			"byteOffset":376704,
			"target":34962
		},
		{
			"buffer":0,
			"byteLength":94176,
			"byteOffset":470880,
			"target":34962
		},
		{
			"buffer":0,
			"byteLength":23544,
			"byteOffset":565056,
			"target":34963
		},
		{
			"buffer":0,
			"byteLength":27504,
			"byteOffset":588600,
			"target":34962
		},
		{
			"buffer":0,
			"byteLength":27504,
			"byteOffset":616104,
			"target":34962
		},
		{
			"buffer":0,
			"byteLength":18336,
			"byteOffset":643608,
			"target":34962
		},
		{
			"buffer":0,
			"byteLength":18336,
			"byteOffset":661944,
			"target":34962
		},
		{
			"buffer":0,
			"byteLength":18336,
			"byteOffset":680280,
			"target":34962
		},
		{
			"buffer":0,
			"byteLength":4584,
			"byteOffset":698616,
			"target":34963
		},
		{
			"buffer":0,
			"byteLength":87552,
			"byteOffset":703200,
			"target":34962
		},
		{
			"buffer":0,
			"byteLength":87552,
			"byteOffset":790752,
			"target":34962
		},
		{
			"buffer":0,
			"byteLength":58368,
			"byteOffset":878304,
			"target":34962
		},
		{
			"buffer":0,
			"byteLength":58368,
			"byteOffset":936672,
			"target":34962
		},
		{
			"buffer":0,
			"byteLength":58368,
			"byteOffset":995040,
			"target":34962
		},
		{
			"buffer":0,
			"byteLength":14592,
			"byteOffset":1053408,
			"target":34963
		},
		{
			"buffer":0,
			"byteLength":104256,
			"byteOffset":1068000,
			"target":34962
		},
		{
			"buffer":0,
			"byteLength":104256,
			"byteOffset":1172256,
			"target":34962
		},
		{
			"buffer":0,
			"byteLength":69504,
			"byteOffset":1276512,
			"target":34962
		},
		{
			"buffer":0,
			"byteLength":69504,
			"byteOffset":1346016,
			"target":34962
		},
		{
			"buffer":0,
			"byteLength":69504,
			"byteOffset":1415520,
			"target":34962
		},
		{
			"buffer":0,
			"byteLength":17376,
			"byteOffset":1485024,
			"target":34963
		},
		{
			"buffer":0,
			"byteLength":262368,
			"byteOffset":1502400,
			"target":34962
		},
		{
			"buffer":0,
			"byteLength":262368,
			"byteOffset":1764768,
			"target":34962
		},
		{
			"buffer":0,
			"byteLength":174912,
			"byteOffset":2027136,
			"target":34962
		},
		{
			"buffer":0,
			"byteLength":174912,
			"byteOffset":2202048,
			"target":34962
		},
		{
			"buffer":0,
			"byteLength":174912,
			"byteOffset":2376960,
			"target":34962
		},
		{
			"buffer":0,
			"byteLength":43728,
			"byteOffset":2551872,
			"target":34963
		},
		{
			"buffer":0,
			"byteLength":254352,
			"byteOffset":2595600,
			"target":34962
		},
		{
			"buffer":0,
			"byteLength":254352,
			"byteOffset":2849952,
			"target":34962
		},
		{
			"buffer":0,
			"byteLength":169568,
			"byteOffset":3104304,
			"target":34962
		},
		{
			"buffer":0,
			"byteLength":169568,
			"byteOffset":3273872,
			"target":34962
		},
		{
			"buffer":0,
			"byteLength":169568,
			"byteOffset":3443440,
			"target":34962
		},
		{
			"buffer":0,
			"byteLength":42600,
			"byteOffset":3613008,
			"target":34963
		},
		{
			"buffer":0,
			"byteLength":32544,
			"byteOffset":3655608,
			"target":34962
		},
		{
			"buffer":0,
			"byteLength":32544,
			"byteOffset":3688152,
			"target":34962
		},
		{
			"buffer":0,
			"byteLength":21696,
			"byteOffset":3720696,
			"target":34962
		},
		{
			"buffer":0,
			"byteLength":21696,
			"byteOffset":3742392,
			"target":34962
		},
		{
			"buffer":0,
			"byteLength":21696,
			"byteOffset":3764088,
			"target":34962
		},
		{
			"buffer":0,
			"byteLength":5424,
			"byteOffset":3785784,
			"target":34963
		}
	],
	"buffers":[
		{
			"byteLength":3791208,
			"uri":"espirit_heels.bin"
		}
	]
}
