{
	"asset":{
		"generator":"Khronos glTF Blender I/O v4.2.69",
		"version":"2.0"
	},
	"scene":0,
	"scenes":[
		{
			"name":"Scene",
			"nodes":[
				0
			]
		}
	],
	"nodes":[
		{
			"mesh":0,
			"name":"PumaSandals"
		}
	],
	"materials":[
		{
			"doubleSided":true,
			"name":"base",
			"pbrMetallicRoughness":{
				"baseColorFactor":[
					0.001318510971032083,
					0.001318510971032083,
					0.001318510971032083,
					1
				],
				"metallicFactor":0,
				"roughnessFactor":0.5
			}
		},
		{
			"doubleSided":true,
			"name":"logo",
			"pbrMetallicRoughness":{
				"metallicFactor":0,
				"roughnessFactor":0.5
			}
		}
	],
	"meshes":[
		{
			"name":"Plane.001",
			"primitives":[
				{
					"attributes":{
						"POSITION":0,
						"NORMAL":1,
						"TEXCOORD_0":2
					},
					"indices":3,
					"material":0
				},
				{
					"attributes":{
						"POSITION":4,
						"NORMAL":5,
						"TEXCOORD_0":6
					},
					"indices":7,
					"material":1
				}
			]
		}
	],
	"accessors":[
		{
			"bufferView":0,
			"componentType":5126,
			"count":132177,
			"max":[
				0.5715545415878296,
				0.07007372379302979,
				0.5046713352203369
			],
			"min":[
				-0.6880578994750977,
				-0.33934664726257324,
				-0.5608772039413452
			],
			"type":"VEC3"
		},
		{
			"bufferView":1,
			"componentType":5126,
			"count":132177,
			"type":"VEC3"
		},
		{
			"bufferView":2,
			"componentType":5126,
			"count":132177,
			"type":"VEC2"
		},
		{
			"bufferView":3,
			"componentType":5125,
			"count":756486,
			"type":"SCALAR"
		},
		{
			"bufferView":4,
			"componentType":5126,
			"count":103483,
			"max":[
				0.19732458889484406,
				0.018026605248451233,
				0.1737363040447235
			],
			"min":[
				-0.03359952196478844,
				-0.06642301380634308,
				-0.025053147226572037
			],
			"type":"VEC3"
		},
		{
			"bufferView":5,
			"componentType":5126,
			"count":103483,
			"type":"VEC3"
		},
		{
			"bufferView":6,
			"componentType":5126,
			"count":103483,
			"type":"VEC2"
		},
		{
			"bufferView":7,
			"componentType":5125,
			"count":155514,
			"type":"SCALAR"
		}
	],
	"bufferViews":[
		{
			"buffer":0,
			"byteLength":1586124,
			"byteOffset":0,
			"target":34962
		},
		{
			"buffer":0,
			"byteLength":1586124,
			"byteOffset":1586124,
			"target":34962
		},
		{
			"buffer":0,
			"byteLength":1057416,
			"byteOffset":3172248,
			"target":34962
		},
		{
			"buffer":0,
			"byteLength":3025944,
			"byteOffset":4229664,
			"target":34963
		},
		{
			"buffer":0,
			"byteLength":1241796,
			"byteOffset":7255608,
			"target":34962
		},
		{
			"buffer":0,
			"byteLength":1241796,
			"byteOffset":8497404,
			"target":34962
		},
		{
			"buffer":0,
			"byteLength":827864,
			"byteOffset":9739200,
			"target":34962
		},
		{
			"buffer":0,
			"byteLength":622056,
			"byteOffset":10567064,
			"target":34963
		}
	],
	"buffers":[
		{
			"byteLength":11189120,
			"uri":"puma_sandals.bin"
		}
	]
}
