{
	"asset":{
		"generator":"Khronos glTF Blender I/O v4.2.0",
		"version":"2.0"
	},
	"scene":0,
	"scenes":[
		{
			"name":"Scene",
			"nodes":[
				0
			]
		}
	],
	"nodes":[
		{
			"mesh":0,
			"name":"Sopra_MatCiabatta_0",
			"rotation":[
				-0.70710688829422,
				0,
				0,
				0.7071066498756409
			]
		}
	],
	"materials":[
		{
			"alphaMode":"BLEND",
			"doubleSided":true,
			"name":"MatCiabatta",
			"normalTexture":{
				"index":0
			},
			"occlusionTexture":{
				"index":1
			},
			"pbrMetallicRoughness":{
				"baseColorTexture":{
					"index":2
				},
				"metallicFactor":0,
				"metallicRoughnessTexture":{
					"index":1
				}
			}
		},
		{
			"alphaMode":"BLEND",
			"doubleSided":true,
			"name":"Suola__0",
			"normalTexture":{
				"index":3
			},
			"occlusionTexture":{
				"index":4
			},
			"pbrMetallicRoughness":{
				"baseColorTexture":{
					"index":5
				},
				"metallicFactor":0,
				"metallicRoughnessTexture":{
					"index":4
				}
			}
		}
	],
	"meshes":[
		{
			"name":"Sopra_MatCiabatta_0",
			"primitives":[
				{
					"attributes":{
						"POSITION":0,
						"NORMAL":1,
						"TEXCOORD_0":2
					},
					"indices":3,
					"material":0
				},
				{
					"attributes":{
						"POSITION":4,
						"NORMAL":5,
						"TEXCOORD_0":6
					},
					"indices":7,
					"material":1
				}
			]
		}
	],
	"textures":[
		{
			"sampler":0,
			"source":0
		},
		{
			"sampler":0,
			"source":1
		},
		{
			"sampler":0,
			"source":2
		},
		{
			"sampler":0,
			"source":0
		},
		{
			"sampler":0,
			"source":1
		},
		{
			"sampler":0,
			"source":2
		}
	],
	"images":[
		{
			"mimeType":"image/png",
			"name":"Suola__0_normal",
			"uri":"Suola__0_normal.png"
		},
		{
			"mimeType":"image/png",
			"name":"Suola__0_metallicRoughness",
			"uri":"Suola__0_metallicRoughness.png"
		},
		{
			"mimeType":"image/png",
			"name":"Suola__0_baseColor",
			"uri":"Suola__0_baseColor.png"
		}
	],
	"accessors":[
		{
			"bufferView":0,
			"componentType":5126,
			"count":5342,
			"max":[
				0.3885384202003479,
				0.25386399030685425,
				0.10660333931446075
			],
			"min":[
				-0.2727275788784027,
				-0.4134190082550049,
				-0.24074168503284454
			],
			"type":"VEC3"
		},
		{
			"bufferView":1,
			"componentType":5126,
			"count":5342,
			"type":"VEC3"
		},
		{
			"bufferView":2,
			"componentType":5126,
			"count":5342,
			"type":"VEC2"
		},
		{
			"bufferView":3,
			"componentType":5123,
			"count":26496,
			"type":"SCALAR"
		},
		{
			"bufferView":4,
			"componentType":5126,
			"count":5474,
			"max":[
				0.5966035723686218,
				0.5598355531692505,
				-0.171431764960289
			],
			"min":[
				-0.6129847168922424,
				-0.4635980725288391,
				-0.32652828097343445
			],
			"type":"VEC3"
		},
		{
			"bufferView":5,
			"componentType":5126,
			"count":5474,
			"type":"VEC3"
		},
		{
			"bufferView":6,
			"componentType":5126,
			"count":5474,
			"type":"VEC2"
		},
		{
			"bufferView":7,
			"componentType":5123,
			"count":21024,
			"type":"SCALAR"
		}
	],
	"bufferViews":[
		{
			"buffer":0,
			"byteLength":64104,
			"byteOffset":0,
			"target":34962
		},
		{
			"buffer":0,
			"byteLength":64104,
			"byteOffset":64104,
			"target":34962
		},
		{
			"buffer":0,
			"byteLength":42736,
			"byteOffset":128208,
			"target":34962
		},
		{
			"buffer":0,
			"byteLength":52992,
			"byteOffset":170944,
			"target":34963
		},
		{
			"buffer":0,
			"byteLength":65688,
			"byteOffset":223936,
			"target":34962
		},
		{
			"buffer":0,
			"byteLength":65688,
			"byteOffset":289624,
			"target":34962
		},
		{
			"buffer":0,
			"byteLength":43792,
			"byteOffset":355312,
			"target":34962
		},
		{
			"buffer":0,
			"byteLength":42048,
			"byteOffset":399104,
			"target":34963
		}
	],
	"samplers":[
		{
			"magFilter":9729,
			"minFilter":9987
		}
	],
	"buffers":[
		{
			"byteLength":441152,
			"uri":"kubota_flip_flops.bin"
		}
	]
}
