{
	"asset":{
		"generator":"Khronos glTF Blender I/O v4.2.0",
		"version":"2.0"
	},
	"scene":0,
	"scenes":[
		{
			"name":"Scene",
			"nodes":[
				0
			]
		}
	],
	"nodes":[
		{
			"mesh":0,
			"name":"old_derby_shoe",
			"translation":[
				0,
				0.10000000149011612,
				0.7539312243461609
			]
		}
	],
	"materials":[
		{
			"alphaMode":"BLEND",
			"doubleSided":true,
			"name":"BlackLeather",
			"normalTexture":{
				"index":0
			},
			"occlusionTexture":{
				"index":1
			},
			"pbrMetallicRoughness":{
				"baseColorTexture":{
					"index":2
				},
				"metallicRoughnessTexture":{
					"index":1
				}
			}
		},
		{
			"alphaMode":"BLEND",
			"doubleSided":true,
			"name":"Cord",
			"normalTexture":{
				"index":3
			},
			"occlusionTexture":{
				"index":4
			},
			"pbrMetallicRoughness":{
				"baseColorTexture":{
					"index":5
				},
				"metallicRoughnessTexture":{
					"index":4
				}
			}
		}
	],
	"meshes":[
		{
			"name":"Cube.008",
			"primitives":[
				{
					"attributes":{
						"POSITION":0,
						"NORMAL":1,
						"TEXCOORD_0":2,
						"TEXCOORD_1":3,
						"TEXCOORD_2":4
					},
					"indices":5,
					"material":0
				},
				{
					"attributes":{
						"POSITION":6,
						"NORMAL":7,
						"TEXCOORD_0":8,
						"TEXCOORD_1":9,
						"TEXCOORD_2":10
					},
					"indices":11,
					"material":1
				}
			]
		}
	],
	"textures":[
		{
			"sampler":0,
			"source":0
		},
		{
			"sampler":0,
			"source":1
		},
		{
			"sampler":0,
			"source":2
		},
		{
			"sampler":0,
			"source":3
		},
		{
			"sampler":0,
			"source":4
		},
		{
			"sampler":0,
			"source":5
		}
	],
	"images":[
		{
			"mimeType":"image/png",
			"name":"BlackLeather_normal",
			"uri":"BlackLeather_normal.png"
		},
		{
			"mimeType":"image/png",
			"name":"BlackLeather_metallicRoughness",
			"uri":"BlackLeather_metallicRoughness.png"
		},
		{
			"mimeType":"image/jpeg",
			"name":"BlackLeather_baseColor",
			"uri":"BlackLeather_baseColor.jpg"
		},
		{
			"mimeType":"image/png",
			"name":"Cord_normal",
			"uri":"Cord_normal.png"
		},
		{
			"mimeType":"image/png",
			"name":"Cord_metallicRoughness",
			"uri":"Cord_metallicRoughness.png"
		},
		{
			"mimeType":"image/jpeg",
			"name":"Cord_baseColor",
			"uri":"Cord_baseColor.jpg"
		}
	],
	"accessors":[
		{
			"bufferView":0,
			"componentType":5126,
			"count":7955,
			"max":[
				0.5924294590950012,
				0.4092409014701843,
				-0.18200135231018066
			],
			"min":[
				-0.8120992183685303,
				-0.7676407098770142,
				-1.463766098022461
			],
			"type":"VEC3"
		},
		{
			"bufferView":1,
			"componentType":5126,
			"count":7955,
			"type":"VEC3"
		},
		{
			"bufferView":2,
			"componentType":5126,
			"count":7955,
			"type":"VEC2"
		},
		{
			"bufferView":3,
			"componentType":5126,
			"count":7955,
			"type":"VEC2"
		},
		{
			"bufferView":4,
			"componentType":5126,
			"count":7955,
			"type":"VEC2"
		},
		{
			"bufferView":5,
			"componentType":5123,
			"count":33792,
			"type":"SCALAR"
		},
		{
			"bufferView":6,
			"componentType":5126,
			"count":1470,
			"max":[
				0.17689552903175354,
				0.16488954424858093,
				-0.5042897462844849
			],
			"min":[
				-0.07919386774301529,
				-0.18899005651474,
				-0.7635119557380676
			],
			"type":"VEC3"
		},
		{
			"bufferView":7,
			"componentType":5126,
			"count":1470,
			"type":"VEC3"
		},
		{
			"bufferView":8,
			"componentType":5126,
			"count":1470,
			"type":"VEC2"
		},
		{
			"bufferView":9,
			"componentType":5126,
			"count":1470,
			"type":"VEC2"
		},
		{
			"bufferView":10,
			"componentType":5126,
			"count":1470,
			"type":"VEC2"
		},
		{
			"bufferView":11,
			"componentType":5123,
			"count":6912,
			"type":"SCALAR"
		}
	],
	"bufferViews":[
		{
			"buffer":0,
			"byteLength":95460,
			"byteOffset":0,
			"target":34962
		},
		{
			"buffer":0,
			"byteLength":95460,
			"byteOffset":95460,
			"target":34962
		},
		{
			"buffer":0,
			"byteLength":63640,
			"byteOffset":190920,
			"target":34962
		},
		{
			"buffer":0,
			"byteLength":63640,
			"byteOffset":254560,
			"target":34962
		},
		{
			"buffer":0,
			"byteLength":63640,
			"byteOffset":318200,
			"target":34962
		},
		{
			"buffer":0,
			"byteLength":67584,
			"byteOffset":381840,
			"target":34963
		},
		{
			"buffer":0,
			"byteLength":17640,
			"byteOffset":449424,
			"target":34962
		},
		{
			"buffer":0,
			"byteLength":17640,
			"byteOffset":467064,
			"target":34962
		},
		{
			"buffer":0,
			"byteLength":11760,
			"byteOffset":484704,
			"target":34962
		},
		{
			"buffer":0,
			"byteLength":11760,
			"byteOffset":496464,
			"target":34962
		},
		{
			"buffer":0,
			"byteLength":11760,
			"byteOffset":508224,
			"target":34962
		},
		{
			"buffer":0,
			"byteLength":13824,
			"byteOffset":519984,
			"target":34963
		}
	],
	"samplers":[
		{
			"magFilter":9729,
			"minFilter":9987
		}
	],
	"buffers":[
		{
			"byteLength":533808,
			"uri":"old_derby_shoe.bin"
		}
	]
}
