{
	"asset":{
		"generator":"Khronos glTF Blender I/O v4.2.69",
		"version":"2.0"
	},
	"scene":0,
	"scenes":[
		{
			"name":"Scene",
			"nodes":[
				0
			]
		}
	],
	"nodes":[
		{
			"mesh":0,
			"name":"AdidasFootballBoots",
			"rotation":[
				-0.70710688829422,
				0,
				0,
				0.7071066498756409
			]
		}
	],
	"materials":[
		{
			"name":"Textured",
			"normalTexture":{
				"index":0
			},
			"pbrMetallicRoughness":{
				"baseColorTexture":{
					"index":1
				},
				"metallicRoughnessTexture":{
					"index":2
				},
				"roughnessFactor":0.550000011920929
			}
		}
	],
	"meshes":[
		{
			"name":"Object_0",
			"primitives":[
				{
					"attributes":{
						"POSITION":0,
						"NORMAL":1,
						"TEXCOORD_0":2
					},
					"indices":3,
					"material":0
				}
			]
		}
	],
	"textures":[
		{
			"sampler":0,
			"source":0
		},
		{
			"sampler":0,
			"source":1
		},
		{
			"sampler":0,
			"source":2
		}
	],
	"images":[
		{
			"mimeType":"image/jpeg",
			"name":"Textured_normal",
			"uri":"Textured_normal.jpg"
		},
		{
			"mimeType":"image/jpeg",
			"name":"Textured_baseColor",
			"uri":"Textured_baseColor.jpg"
		},
		{
			"mimeType":"image/png",
			"name":"Textured_metallicRoughness",
			"uri":"Textured_metallicRoughness.png"
		}
	],
	"accessors":[
		{
			"bufferView":0,
			"componentType":5126,
			"count":95525,
			"max":[
				0.4889485239982605,
				0.5229997038841248,
				0.4315033555030823
			],
			"min":[
				-0.5793266892433167,
				-0.4954405725002289,
				-0.6248741745948792
			],
			"type":"VEC3"
		},
		{
			"bufferView":1,
			"componentType":5126,
			"count":95525,
			"type":"VEC3"
		},
		{
			"bufferView":2,
			"componentType":5126,
			"count":95525,
			"type":"VEC2"
		},
		{
			"bufferView":3,
			"componentType":5125,
			"count":479703,
			"type":"SCALAR"
		}
	],
	"bufferViews":[
		{
			"buffer":0,
			"byteLength":1146300,
			"byteOffset":0,
			"target":34962
		},
		{
			"buffer":0,
			"byteLength":1146300,
			"byteOffset":1146300,
			"target":34962
		},
		{
			"buffer":0,
			"byteLength":764200,
			"byteOffset":2292600,
			"target":34962
		},
		{
			"buffer":0,
			"byteLength":1918812,
			"byteOffset":3056800,
			"target":34963
		}
	],
	"samplers":[
		{
			"magFilter":9729,
			"minFilter":9987
		}
	],
	"buffers":[
		{
			"byteLength":4975612,
			"uri":"adidas_football_boots.bin"
		}
	]
}
