{
	"asset":{
		"generator":"Khronos glTF Blender I/O v4.2.69",
		"version":"2.0"
	},
	"scene":0,
	"scenes":[
		{
			"name":"Scene",
			"nodes":[
				0
			]
		}
	],
	"nodes":[
		{
			"mesh":0,
			"name":"AdidasFlipFlops",
			"rotation":[
				1,
				0,
				0,
				0
			]
		}
	],
	"materials":[
		{
			"doubleSided":true,
			"name":"material_0",
			"pbrMetallicRoughness":{
				"baseColorTexture":{
					"index":0
				},
				"metallicFactor":0,
				"roughnessFactor":0.4376586675643921
			}
		}
	],
	"meshes":[
		{
			"name":"Object_7",
			"primitives":[
				{
					"attributes":{
						"POSITION":0,
						"NORMAL":1,
						"TEXCOORD_0":2
					},
					"indices":3,
					"material":0
				}
			]
		}
	],
	"textures":[
		{
			"sampler":0,
			"source":0
		}
	],
	"images":[
		{
			"mimeType":"image/jpeg",
			"name":"material_0_baseColor",
			"uri":"material_0_baseColor.jpg"
		}
	],
	"accessors":[
		{
			"bufferView":0,
			"componentType":5126,
			"count":485288,
			"max":[
				0.5625190734863281,
				0.3861614167690277,
				0.5510041117668152
			],
			"min":[
				-0.7021846771240234,
				-0.060312122106552124,
				-0.5573400855064392
			],
			"type":"VEC3"
		},
		{
			"bufferView":1,
			"componentType":5126,
			"count":485288,
			"type":"VEC3"
		},
		{
			"bufferView":2,
			"componentType":5126,
			"count":485288,
			"type":"VEC2"
		},
		{
			"bufferView":3,
			"componentType":5125,
			"count":2489106,
			"type":"SCALAR"
		}
	],
	"bufferViews":[
		{
			"buffer":0,
			"byteLength":5823456,
			"byteOffset":0,
			"target":34962
		},
		{
			"buffer":0,
			"byteLength":5823456,
			"byteOffset":5823456,
			"target":34962
		},
		{
			"buffer":0,
			"byteLength":3882304,
			"byteOffset":11646912,
			"target":34962
		},
		{
			"buffer":0,
			"byteLength":9956424,
			"byteOffset":15529216,
			"target":34963
		}
	],
	"samplers":[
		{
			"magFilter":9729,
			"minFilter":9987
		}
	],
	"buffers":[
		{
			"byteLength":25485640,
			"uri":"adidas_flip_flops.bin"
		}
	]
}
