{
	"asset":{
		"generator":"Khronos glTF Blender I/O v4.2.69",
		"version":"2.0"
	},
	"scene":0,
	"scenes":[
		{
			"name":"Scene",
			"nodes":[
				0
			]
		}
	],
	"nodes":[
		{
			"mesh":0,
			"name":"AirJordan",
			"rotation":[
				0,
				-0.9978365302085876,
				0,
				0.06574351340532303
			],
			"scale":[
				0.009999999776482582,
				0.010000001639127731,
				0.010000001639127731
			],
			"translation":[
				-0.051962960511446,
				0.1119014173746109,
				-0.01093197986483574
			]
		}
	],
	"materials":[
		{
			"doubleSided":true,
			"name":"MAT_Shoe_L",
			"normalTexture":{
				"index":0
			},
			"occlusionTexture":{
				"index":1
			},
			"pbrMetallicRoughness":{
				"baseColorTexture":{
					"index":2
				},
				"metallicFactor":0,
				"metallicRoughnessTexture":{
					"index":1
				}
			}
		},
		{
			"doubleSided":true,
			"name":"MAT_Sole_L",
			"normalTexture":{
				"index":3
			},
			"occlusionTexture":{
				"index":4
			},
			"pbrMetallicRoughness":{
				"baseColorTexture":{
					"index":5
				},
				"metallicFactor":0,
				"metallicRoughnessTexture":{
					"index":4
				}
			}
		},
		{
			"doubleSided":true,
			"name":"MAT_Laces_L",
			"normalTexture":{
				"index":6
			},
			"occlusionTexture":{
				"index":7
			},
			"pbrMetallicRoughness":{
				"baseColorTexture":{
					"index":8
				},
				"metallicFactor":0,
				"metallicRoughnessTexture":{
					"index":7
				}
			}
		}
	],
	"meshes":[
		{
			"name":"Shoe_L_MAT_Shoe_L_0",
			"primitives":[
				{
					"attributes":{
						"POSITION":0,
						"NORMAL":1,
						"TEXCOORD_0":2,
						"TEXCOORD_1":3,
						"TEXCOORD_2":4
					},
					"indices":5,
					"material":0
				},
				{
					"attributes":{
						"POSITION":6,
						"NORMAL":7,
						"TEXCOORD_0":8,
						"TEXCOORD_1":9,
						"TEXCOORD_2":10
					},
					"indices":11,
					"material":1
				},
				{
					"attributes":{
						"POSITION":12,
						"NORMAL":13,
						"TEXCOORD_0":14,
						"TEXCOORD_1":15,
						"TEXCOORD_2":16
					},
					"indices":17,
					"material":2
				}
			]
		}
	],
	"textures":[
		{
			"sampler":0,
			"source":0
		},
		{
			"sampler":0,
			"source":1
		},
		{
			"sampler":0,
			"source":2
		},
		{
			"sampler":0,
			"source":3
		},
		{
			"sampler":0,
			"source":4
		},
		{
			"sampler":0,
			"source":5
		},
		{
			"sampler":0,
			"source":6
		},
		{
			"sampler":0,
			"source":7
		},
		{
			"sampler":0,
			"source":8
		}
	],
	"images":[
		{
			"mimeType":"image/png",
			"name":"MAT_Shoe_L_normal",
			"uri":"MAT_Shoe_L_normal.png"
		},
		{
			"mimeType":"image/png",
			"name":"MAT_Shoe_L_metallicRoughness",
			"uri":"MAT_Shoe_L_metallicRoughness.png"
		},
		{
			"mimeType":"image/png",
			"name":"MAT_Shoe_L_baseColor",
			"uri":"MAT_Shoe_L_baseColor.png"
		},
		{
			"mimeType":"image/png",
			"name":"MAT_Sole_L_normal",
			"uri":"MAT_Sole_L_normal.png"
		},
		{
			"mimeType":"image/png",
			"name":"MAT_Sole_L_metallicRoughness",
			"uri":"MAT_Sole_L_metallicRoughness.png"
		},
		{
			"mimeType":"image/png",
			"name":"MAT_Sole_L_baseColor",
			"uri":"MAT_Sole_L_baseColor.png"
		},
		{
			"mimeType":"image/png",
			"name":"MAT_Laces_L_normal",
			"uri":"MAT_Laces_L_normal.png"
		},
		{
			"mimeType":"image/png",
			"name":"MAT_Laces_L_metallicRoughness",
			"uri":"MAT_Laces_L_metallicRoughness.png"
		},
		{
			"mimeType":"image/png",
			"name":"MAT_Laces_L_baseColor",
			"uri":"MAT_Laces_L_baseColor.png"
		}
	],
	"accessors":[
		{
			"bufferView":0,
			"componentType":5126,
			"count":44512,
			"max":[
				58.17704391479492,
				46.677398681640625,
				57.837860107421875
			],
			"min":[
				-50.43690490722656,
				-78.81199645996094,
				-58.47158432006836
			],
			"type":"VEC3"
		},
		{
			"bufferView":1,
			"componentType":5126,
			"count":44512,
			"type":"VEC3"
		},
		{
			"bufferView":2,
			"componentType":5126,
			"count":44512,
			"type":"VEC2"
		},
		{
			"bufferView":3,
			"componentType":5126,
			"count":44512,
			"type":"VEC2"
		},
		{
			"bufferView":4,
			"componentType":5126,
			"count":44512,
			"type":"VEC2"
		},
		{
			"bufferView":5,
			"componentType":5123,
			"count":66768,
			"type":"SCALAR"
		},
		{
			"bufferView":6,
			"componentType":5126,
			"count":1280,
			"max":[
				49.94167709350586,
				-1.2361040115356445,
				50.95326614379883
			],
			"min":[
				-47.208553314208984,
				-69.41389465332031,
				-54.949134826660156
			],
			"type":"VEC3"
		},
		{
			"bufferView":7,
			"componentType":5126,
			"count":1280,
			"type":"VEC3"
		},
		{
			"bufferView":8,
			"componentType":5126,
			"count":1280,
			"type":"VEC2"
		},
		{
			"bufferView":9,
			"componentType":5126,
			"count":1280,
			"type":"VEC2"
		},
		{
			"bufferView":10,
			"componentType":5126,
			"count":1280,
			"type":"VEC2"
		},
		{
			"bufferView":11,
			"componentType":5123,
			"count":2640,
			"type":"SCALAR"
		},
		{
			"bufferView":12,
			"componentType":5126,
			"count":14992,
			"max":[
				2.193881034851074,
				31.27323341369629,
				9.990986824035645
			],
			"min":[
				-35.96769714355469,
				-36.80646514892578,
				-34.31246566772461
			],
			"type":"VEC3"
		},
		{
			"bufferView":13,
			"componentType":5126,
			"count":14992,
			"type":"VEC3"
		},
		{
			"bufferView":14,
			"componentType":5126,
			"count":14992,
			"type":"VEC2"
		},
		{
			"bufferView":15,
			"componentType":5126,
			"count":14992,
			"type":"VEC2"
		},
		{
			"bufferView":16,
			"componentType":5126,
			"count":14992,
			"type":"VEC2"
		},
		{
			"bufferView":17,
			"componentType":5123,
			"count":22500,
			"type":"SCALAR"
		}
	],
	"bufferViews":[
		{
			"buffer":0,
			"byteLength":534144,
			"byteOffset":0,
			"target":34962
		},
		{
			"buffer":0,
			"byteLength":534144,
			"byteOffset":534144,
			"target":34962
		},
		{
			"buffer":0,
			"byteLength":356096,
			"byteOffset":1068288,
			"target":34962
		},
		{
			"buffer":0,
			"byteLength":356096,
			"byteOffset":1424384,
			"target":34962
		},
		{
			"buffer":0,
			"byteLength":356096,
			"byteOffset":1780480,
			"target":34962
		},
		{
			"buffer":0,
			"byteLength":133536,
			"byteOffset":2136576,
			"target":34963
		},
		{
			"buffer":0,
			"byteLength":15360,
			"byteOffset":2270112,
			"target":34962
		},
		{
			"buffer":0,
			"byteLength":15360,
			"byteOffset":2285472,
			"target":34962
		},
		{
			"buffer":0,
			"byteLength":10240,
			"byteOffset":2300832,
			"target":34962
		},
		{
			"buffer":0,
			"byteLength":10240,
			"byteOffset":2311072,
			"target":34962
		},
		{
			"buffer":0,
			"byteLength":10240,
			"byteOffset":2321312,
			"target":34962
		},
		{
			"buffer":0,
			"byteLength":5280,
			"byteOffset":2331552,
			"target":34963
		},
		{
			"buffer":0,
			"byteLength":179904,
			"byteOffset":2336832,
			"target":34962
		},
		{
			"buffer":0,
			"byteLength":179904,
			"byteOffset":2516736,
			"target":34962
		},
		{
			"buffer":0,
			"byteLength":119936,
			"byteOffset":2696640,
			"target":34962
		},
		{
			"buffer":0,
			"byteLength":119936,
			"byteOffset":2816576,
			"target":34962
		},
		{
			"buffer":0,
			"byteLength":119936,
			"byteOffset":2936512,
			"target":34962
		},
		{
			"buffer":0,
			"byteLength":45000,
			"byteOffset":3056448,
			"target":34963
		}
	],
	"samplers":[
		{
			"magFilter":9729,
			"minFilter":9987
		}
	],
	"buffers":[
		{
			"byteLength":3101448,
			"uri":"air_jordan.bin"
		}
	]
}
