{
	"asset":{
		"generator":"Khronos glTF Blender I/O v4.2.0",
		"version":"2.0"
	},
	"scene":0,
	"scenes":[
		{
			"name":"Scene",
			"nodes":[
				0
			]
		}
	],
	"nodes":[
		{
			"mesh":0,
			"name":"white_heels",
			"translation":[
				0,
				0.10000000149011612,
				0.7539312243461609
			]
		}
	],
	"materials":[
		{
			"alphaMode":"BLEND",
			"doubleSided":true,
			"name":"aiStandardSurface14SG",
			"normalTexture":{
				"index":0
			},
			"occlusionTexture":{
				"index":1
			},
			"pbrMetallicRoughness":{
				"baseColorTexture":{
					"index":2
				},
				"metallicRoughnessTexture":{
					"index":1
				}
			}
		}
	],
	"meshes":[
		{
			"name":"Cube.002",
			"primitives":[
				{
					"attributes":{
						"POSITION":0,
						"NORMAL":1,
						"TEXCOORD_0":2,
						"TEXCOORD_1":3,
						"TEXCOORD_2":4
					},
					"indices":5,
					"material":0
				}
			]
		}
	],
	"textures":[
		{
			"sampler":0,
			"source":0
		},
		{
			"sampler":0,
			"source":1
		},
		{
			"sampler":0,
			"source":2
		}
	],
	"images":[
		{
			"mimeType":"image/png",
			"name":"aiStandardSurface14SG_normal",
			"uri":"aiStandardSurface14SG_normal.png"
		},
		{
			"mimeType":"image/png",
			"name":"aiStandardSurface14SG_metallicRoughness",
			"uri":"aiStandardSurface14SG_metallicRoughness.png"
		},
		{
			"mimeType":"image/png",
			"name":"aiStandardSurface14SG_baseColor",
			"uri":"aiStandardSurface14SG_baseColor.png"
		}
	],
	"accessors":[
		{
			"bufferView":0,
			"componentType":5126,
			"count":2737,
			"max":[
				0.4597402811050415,
				0.4244794249534607,
				-0.29255253076553345
			],
			"min":[
				-0.6585593223571777,
				-0.6103160381317139,
				-1.3150283098220825
			],
			"type":"VEC3"
		},
		{
			"bufferView":1,
			"componentType":5126,
			"count":2737,
			"type":"VEC3"
		},
		{
			"bufferView":2,
			"componentType":5126,
			"count":2737,
			"type":"VEC2"
		},
		{
			"bufferView":3,
			"componentType":5126,
			"count":2737,
			"type":"VEC2"
		},
		{
			"bufferView":4,
			"componentType":5126,
			"count":2737,
			"type":"VEC2"
		},
		{
			"bufferView":5,
			"componentType":5123,
			"count":14376,
			"type":"SCALAR"
		}
	],
	"bufferViews":[
		{
			"buffer":0,
			"byteLength":32844,
			"byteOffset":0,
			"target":34962
		},
		{
			"buffer":0,
			"byteLength":32844,
			"byteOffset":32844,
			"target":34962
		},
		{
			"buffer":0,
			"byteLength":21896,
			"byteOffset":65688,
			"target":34962
		},
		{
			"buffer":0,
			"byteLength":21896,
			"byteOffset":87584,
			"target":34962
		},
		{
			"buffer":0,
			"byteLength":21896,
			"byteOffset":109480,
			"target":34962
		},
		{
			"buffer":0,
			"byteLength":28752,
			"byteOffset":131376,
			"target":34963
		}
	],
	"samplers":[
		{
			"magFilter":9729,
			"minFilter":9987
		}
	],
	"buffers":[
		{
			"byteLength":160128,
			"uri":"white_heels.bin"
		}
	]
}
