{
	"asset":{
		"generator":"Khronos glTF Blender I/O v4.2.0",
		"version":"2.0"
	},
	"scene":0,
	"scenes":[
		{
			"name":"Scene",
			"nodes":[
				0
			]
		}
	],
	"nodes":[
		{
			"mesh":0,
			"name":"CrocsSlippers",
			"scale":[
				0.05999999865889549,
				0.060000013560056686,
				0.060000013560056686
			]
		}
	],
	"materials":[
		{
			"alphaMode":"BLEND",
			"doubleSided":true,
			"name":"lambert1",
			"pbrMetallicRoughness":{
				"baseColorTexture":{
					"index":0
				},
				"metallicFactor":0,
				"roughnessFactor":0.5
			}
		}
	],
	"meshes":[
		{
			"name":"crocs_slipper_lambert1_0",
			"primitives":[
				{
					"attributes":{
						"POSITION":0,
						"NORMAL":1,
						"TEXCOORD_0":2
					},
					"indices":3,
					"material":0
				}
			]
		}
	],
	"textures":[
		{
			"sampler":0,
			"source":0
		}
	],
	"images":[
		{
			"mimeType":"image/jpeg",
			"name":"lambert1_baseColor",
			"uri":"lambert1_baseColor.jpg"
		}
	],
	"accessors":[
		{
			"bufferView":0,
			"componentType":5126,
			"count":246884,
			"max":[
				12.40800666809082,
				1.13605535030365,
				8.722131729125977
			],
			"min":[
				-9.234431266784668,
				-7.347701072692871,
				-5.513502597808838
			],
			"type":"VEC3"
		},
		{
			"bufferView":1,
			"componentType":5126,
			"count":246884,
			"type":"VEC3"
		},
		{
			"bufferView":2,
			"componentType":5126,
			"count":246884,
			"type":"VEC2"
		},
		{
			"bufferView":3,
			"componentType":5125,
			"count":1287051,
			"type":"SCALAR"
		}
	],
	"bufferViews":[
		{
			"buffer":0,
			"byteLength":2962608,
			"byteOffset":0,
			"target":34962
		},
		{
			"buffer":0,
			"byteLength":2962608,
			"byteOffset":2962608,
			"target":34962
		},
		{
			"buffer":0,
			"byteLength":1975072,
			"byteOffset":5925216,
			"target":34962
		},
		{
			"buffer":0,
			"byteLength":5148204,
			"byteOffset":7900288,
			"target":34963
		}
	],
	"samplers":[
		{
			"magFilter":9729,
			"minFilter":9987
		}
	],
	"buffers":[
		{
			"byteLength":13048492,
			"uri":"crocs_slippers.bin"
		}
	]
}
